<svg id="Layer_1" data-name="Layer 1" xmlns="http://www.w3.org/2000/svg" viewBox="0 0 662.99 141.57"><defs><style>.cls-1{fill:#fff;}</style></defs><title>logo</title><path class="cls-1" d="M15.88,360.64a1.43,1.43,0,0,1,1.27-1.06h1.13a1.44,1.44,0,0,1,1.2.78l14.8,36.18h0.28l14.72-36.18a1.35,1.35,0,0,1,1.2-.78h1.13a1.43,1.43,0,0,1,1.27,1.06l8.71,47.57a1.21,1.21,0,0,1-1.27,1.63h-4.6a1.47,1.47,0,0,1-1.34-1L49.15,377.2H48.94L36.19,409.77a1.2,1.2,0,0,1-1.2.78H33.72a1.27,1.27,0,0,1-1.2-.78L19.7,377.2H19.42l-5.1,31.64a1.38,1.38,0,0,1-1.28,1H8.44a1.27,1.27,0,0,1-1.34-1.63l8.78-47.57h0Z" transform="translate(26 -326)"/><path class="cls-1" d="M70.65,408l21.73-47.64a1.66,1.66,0,0,1,1.2-.78h0.71a1.66,1.66,0,0,1,1.2.78L117.09,408a1.25,1.25,0,0,1-1.2,1.84h-4.46a1.65,1.65,0,0,1-1.63-1.06l-4.39-9.7H82.26c-1.42,3.26-2.9,6.44-4.32,9.7a1.78,1.78,0,0,1-1.63,1.06H71.85a1.25,1.25,0,0,1-1.2-1.84h0Zm32.07-15L94,373.59H93.66L85,393h17.7Z" transform="translate(26 -326)"/><path class="cls-1" d="M129.46,362a1.68,1.68,0,0,1,1.7-1.7h4.11A1.72,1.72,0,0,1,137,362v19.61l20-20.6a1.81,1.81,0,0,1,1.34-.71h5.31a1.47,1.47,0,0,1,1,2.55l-20.46,20.81,21.66,23.86a1.5,1.5,0,0,1-1.27,2.34h-5.66a1.53,1.53,0,0,1-1.27-.5L137,386.12v22a1.72,1.72,0,0,1-1.7,1.7h-4.11a1.68,1.68,0,0,1-1.7-1.7V362h0Z" transform="translate(26 -326)"/><path class="cls-1" d="M179.43,361.63a1.34,1.34,0,0,1,1.34-1.34h28.32a1.34,1.34,0,0,1,1.35,1.34v4a1.34,1.34,0,0,1-1.35,1.35H186.72v14.44h18.9a1.39,1.39,0,0,1,1.35,1.35v4a1.34,1.34,0,0,1-1.35,1.35h-18.9v15.22h22.37a1.34,1.34,0,0,1,1.35,1.35v3.89a1.34,1.34,0,0,1-1.35,1.35H180.78a1.34,1.34,0,0,1-1.34-1.35V361.63h0Z" transform="translate(26 -326)"/><path class="cls-1" d="M248.6,360.64a1.43,1.43,0,0,1,1.27-1.06H251a1.44,1.44,0,0,1,1.2.78L267,396.53h0.28L282,360.35a1.35,1.35,0,0,1,1.2-.78h1.13a1.43,1.43,0,0,1,1.27,1.06l8.71,47.57a1.21,1.21,0,0,1-1.27,1.63h-4.6a1.47,1.47,0,0,1-1.35-1l-5.24-31.64h-0.21l-12.74,32.56a1.2,1.2,0,0,1-1.2.78h-1.27a1.27,1.27,0,0,1-1.2-.78L252.42,377.2h-0.28L247,408.85a1.38,1.38,0,0,1-1.28,1h-4.6a1.27,1.27,0,0,1-1.35-1.63l8.78-47.57h0Z" transform="translate(26 -326)"/><path class="cls-1" d="M310,361.63a1.34,1.34,0,0,1,1.34-1.34h28.32a1.34,1.34,0,0,1,1.35,1.34v4a1.34,1.34,0,0,1-1.35,1.35H317.32v14.44h18.9a1.39,1.39,0,0,1,1.34,1.35v4a1.34,1.34,0,0,1-1.34,1.35h-18.9v15.22h22.37A1.34,1.34,0,0,1,341,404.6v3.89a1.34,1.34,0,0,1-1.35,1.35H311.37a1.34,1.34,0,0,1-1.34-1.35V361.63h0Z" transform="translate(26 -326)"/><path class="cls-1" d="M396.54,359.58a24.25,24.25,0,0,1,17.2,6.58,0.9,0.9,0,0,1,.07,1.27l-1.13,1.2a0.73,0.73,0,0,1-1.2-.07,22.22,22.22,0,1,0-14.94,38.79c6.09,0,10.69-2.41,14.94-5.95a0.89,0.89,0,0,1,1.13-.14l1.2,1.2a0.81,0.81,0,0,1,0,1.2,24.46,24.46,0,0,1-17.27,6.87,25.49,25.49,0,1,1,0-51h0Z" transform="translate(26 -326)"/><path class="cls-1" d="M430.58,361.2a0.94,0.94,0,0,1,.92-0.92h1.56a0.93,0.93,0,0,1,.85.92v45.66h22.58a0.76,0.76,0,0,1,.92.92v1.27a0.82,0.82,0,0,1-.92.78h-25a0.94,0.94,0,0,1-.92-0.92V361.2h0Z" transform="translate(26 -326)"/><path class="cls-1" d="M470.5,361.2a0.94,0.94,0,0,1,.92-0.92H499.8a0.94,0.94,0,0,1,.92.92v1.2a0.94,0.94,0,0,1-.92.92H473.89v19.54h22.44a0.94,0.94,0,0,1,.92.92V385a0.94,0.94,0,0,1-.92.92H473.89v21H499.8a0.94,0.94,0,0,1,.92.92v1.13a0.94,0.94,0,0,1-.92.92H471.42a0.94,0.94,0,0,1-.92-0.92V361.2h0Z" transform="translate(26 -326)"/><path class="cls-1" d="M511,409l21.8-49.27a1,1,0,0,1,.85-0.49h0.21a0.9,0.9,0,0,1,.92.49L556.42,409c0.14,0.43.14,0.85-.64,0.85h-1.84a1.15,1.15,0,0,1-1-.64l-5.73-13h-27l-5.66,13a1.15,1.15,0,0,1-1,.64h-2c-0.49,0-.71-0.28-0.49-0.85h0Zm35-15.57-12.11-28.53h-0.14l-12.32,28.53H546Z" transform="translate(26 -326)"/><path class="cls-1" d="M569.65,361.2a0.89,0.89,0,0,1,.92-0.92h17.56c8.64,0,15.79,6.51,15.79,15.15,0,7.15-5,12.88-11.68,14.8l10.34,18.33c0.35,0.57.21,1.27-.5,1.27h-2.19a1,1,0,0,1-1-.64l-10.26-18.55c-0.92.07-1.7,0.07-2.62,0.07H573v18.19a1,1,0,0,1-1.13.92h-1.27a0.94,0.94,0,0,1-.92-0.92V361.2h0ZM588,387.75a12.37,12.37,0,0,0,12.53-12.32c0-6.73-5.73-11.89-12.6-11.89H573v24.21H588Z" transform="translate(26 -326)"/><path class="cls-1" d="M-26,467.57V326H637V443.8H1.57L-26,467.57h0Zm5.18-136.4V456.27l20.47-17.65H631.81V331.18H-20.82Z" transform="translate(26 -326)"/></svg>